<?xml version="1.0" encoding="utf-8"?> 
<!DOCTYPE svg PUBLIC "-//W3C//DTD SVG 1.1//EN" "http://www.w3.org/Graphics/SVG/1.1/DTD/svg11.dtd">
<svg width="279mm" height="215mm" viewBox="0 0 2794 2159" xmlns="http://www.w3.org/2000/svg" xmlns:xlink="http://www.w3.org/1999/xlink"><defs>

	</defs>
	<svg x="0" y="0" width="2794" height="2159">
		<g transform="translate(10.00,10.00)">
			<g transform="translate(133.18,879.09) scale(1,1) rotate(0.00,185.65,185.65) " fill="none" fill-opacity="1.0" stroke="rgb(0,0,0)" stroke-width="1" stroke-linecap="round" stroke-opacity="1.0">
			</g>
			<g transform="translate(2148.17,419.80) scale(1,1) rotate(0.00,200.00,200.00) " fill="none" fill-opacity="1.0" stroke="rgb(0,0,0)" stroke-width="1" stroke-linecap="round" stroke-opacity="1.0">
			</g>
			<g transform="translate(2148.17,1250.39) scale(1,1) rotate(0.00,200.00,200.00) " fill="none" fill-opacity="1.0" stroke="rgb(0,0,0)" stroke-width="1" stroke-linecap="round" stroke-opacity="1.0">
			</g>
			<g transform="translate(1003.11,1166.52) scale(1,1) rotate(0.00,83.87,83.87) " fill="none" fill-opacity="1.0" stroke="rgb(0,0,0)" stroke-width="1" stroke-linecap="round" stroke-opacity="1.0">
			</g>
		</g>
	</svg>
	<svg x="0" y="0" width="2794" height="2159">
		<g transform="translate(915.59,647.83) scale(1,1) rotate(0.00,455.34,416.91) " fill="rgb(255,255,255)" fill-opacity="1.0" stroke="rgb(122,122,122)" stroke-width="2" stroke-linecap="round" stroke-opacity="1.0">
			<path fill-rule="evenodd" marker-start="none" marker-end="none" d="M 25.40 833.83 A 25.40 25.40 0.00 0 1 0.00 808.43 L 0.00 25.40 A 25.40 25.40 -0.00 0 1 25.40 0.00 L 885.27 0.00 A 25.40 25.40 -0.00 0 1 910.67 25.40 L 910.67 808.43 A 25.40 25.40 -0.00 0 1 885.27 833.83 L 25.40 833.83  Z">
			</path>
		</g>
		<g transform="translate(133.18,879.09) scale(1,1) rotate(0.00,185.65,185.65) " fill="rgb(242,101,34)" fill-opacity="1.0" stroke="rgb(255,255,255)" stroke-width="1" stroke-linecap="round" stroke-opacity="1.0">
			<g transform="translate(0.00,0.00) scale(1,1) rotate(0.00,185.65,185.65) " fill="rgb(242,101,34)" fill-opacity="1.0" stroke="rgb(255,255,255)" stroke-width="1" stroke-linecap="round" stroke-opacity="1.0">
				<path fill-rule="evenodd" marker-start="none" marker-end="none" d="M 0.00 185.65 A 185.65 185.65 -0.00 1 1 371.30 185.65 A 185.65 185.65 0.00 1 1 0.00 185.65  Z">
				</path>
			</g>
			<g transform="translate(88.07,59.87) scale(1,1) rotate(0.00,97.58,125.78) " fill="rgb(255,255,255)" fill-opacity="1.0" stroke="none" stroke-width="1" stroke-linecap="round" stroke-opacity="1.0">
				<path fill-rule="evenodd" marker-start="none" marker-end="none" d="M 195.16 213.22 A 143.08 143.08 -0.00 0 1 0.00 213.01 A 115.43 115.43 90.00 0 1 71.19 109.82 A 58.35 58.34 -0.00 1 1 125.12 110.33 A 120.17 120.17 0.00 0 1 195.16 213.22  Z">
				</path>
			</g>
		</g>
		<g transform="translate(2148.17,419.80) scale(1,1) rotate(0.00,200.00,200.00) " fill="rgb(1,86,167)" fill-opacity="1.0" stroke="rgb(255,255,255)" stroke-width="1" stroke-linecap="round" stroke-opacity="1.0">
			<g transform="translate(0.00,0.00) scale(1,1) rotate(0.00,200.00,200.00) " fill="rgb(1,86,167)" fill-opacity="1.0" stroke="rgb(255,255,255)" stroke-width="1" stroke-linecap="round" stroke-opacity="1.0">
				<path fill-rule="evenodd" marker-start="none" marker-end="none" d="M 0.00 200.00 A 200.00 200.00 90.00 1 1 400.00 200.00 A 200.00 200.00 90.00 1 1 0.00 200.00  Z">
				</path>
			</g>
			<g transform="translate(64.50,119.17) scale(1,1) rotate(0.00,135.50,80.83) " fill="rgb(255,255,255)" fill-opacity="1.0" stroke="none" stroke-width="1" stroke-linecap="round" stroke-opacity="1.0">
				<path fill-rule="evenodd" marker-start="none" marker-end="none" d="M 229.75 161.67 L 53.46 161.67 A 57.45 57.43 -217.47 0 1 50.45 47.36 A 37.54 37.54 87.35 0 1 102.32 20.51 A 60.68 60.67 5.23 0 1 208.49 60.02 A 53.66 53.66 0.03 0 1 239.85 161.67 L 229.75 161.67  Z">
				</path>
			</g>
		</g>
		<g transform="translate(2148.17,1250.39) scale(1,1) rotate(0.00,200.00,200.00) " fill="rgb(0,196,238)" fill-opacity="1.0" stroke="rgb(255,255,255)" stroke-width="1" stroke-linecap="round" stroke-opacity="1.0">
			<g transform="translate(0.00,0.00) scale(1,1) rotate(0.00,200.00,200.00) " fill="rgb(0,196,238)" fill-opacity="1.0" stroke="rgb(255,255,255)" stroke-width="1" stroke-linecap="round" stroke-opacity="1.0">
				<path fill-rule="evenodd" marker-start="none" marker-end="none" d="M 0.00 200.00 A 200.00 200.00 90.00 1 1 400.00 200.00 A 200.00 200.00 90.00 1 1 0.00 200.00  Z">
				</path>
			</g>
			<g transform="translate(84.05,64.50) scale(1,1) rotate(0.00,115.95,135.50) " fill="rgb(255,255,255)" fill-opacity="1.0" stroke="none" stroke-width="1" stroke-linecap="round" stroke-opacity="1.0">
				<path fill-rule="evenodd" marker-start="none" marker-end="none" d="M 231.91 43.07 C 220.64 13.91   164.65 0.00 117.28 0.00 S 11.26 11.60 0.00 43.73 L 0.00 97.07 C 9.94 124.24   77.84 139.56 117.61 139.48 S 220.64 126.56 231.91 96.57 L 231.91 43.07  ZM 231.91 108.83 C 219.98 138.98   165.32 151.17 117.94 151.17 S 10.27 139.64 0.00 109.49 L 0.00 162.83 C 9.94 190.00   77.84 205.32 117.61 205.24 S 220.64 192.32 231.91 162.33 L 231.91 108.83  ZM 231.91 174.59 C 219.98 204.74   166.33 215.92 118.95 215.92 S 10.27 205.40 0.00 175.26 L 0.00 228.59 C 9.94 255.76   77.84 271.09 117.61 271.00 S 220.64 258.08 231.91 228.10 L 231.91 174.59  Z">
				</path>
			</g>
		</g>
		<g transform="translate(1003.11,1166.52) scale(1,1) rotate(0.00,83.87,83.87) " fill="rgb(35,78,121)" fill-opacity="1.0" stroke="rgb(255,255,255)" stroke-width="1" stroke-linecap="round" stroke-opacity="1.0">
			<g transform="translate(0.00,0.00) scale(1,1) rotate(0.00,83.87,83.87) " fill="rgb(35,78,121)" fill-opacity="1.0" stroke="rgb(255,255,255)" stroke-width="1" stroke-linecap="round" stroke-opacity="1.0">
				<path fill-rule="evenodd" marker-start="none" marker-end="none" d="M 0.00 83.87 A 83.87 83.87 90.00 1 1 167.75 83.87 A 83.87 83.87 90.00 1 1 0.00 83.87  Z">
				</path>
			</g>
			<g transform="translate(27.05,61.33) scale(1,1) rotate(0.00,56.82,22.55) " fill="rgb(255,255,255)" fill-opacity="1.0" stroke="none" stroke-width="1" stroke-linecap="round" stroke-opacity="1.0">
				<path fill-rule="evenodd" marker-start="none" marker-end="none" d="M 29.47 28.05 L 24.48 11.73 L 19.48 28.05 L 29.47 28.05  ZM 32.51 37.57 L 16.44 37.57 L 14.23 45.09 L 0.00 45.09 L 16.89 0.00 L 32.06 0.00 L 48.95 45.09 L 34.72 45.09 L 32.51 37.57  ZM 74.40 9.20 L 69.09 9.20 L 69.09 19.19 L 74.52 19.19 C 81.80 18.94   81.42 9.14 74.40 9.20  ZM 79.20 28.40 C 91.16 27.73   93.75 19.00 93.50 13.76 S 91.85 1.11 80.53 0.03 L 55.17 0.03 L 55.17 45.06 L 69.09 45.06 L 69.09 28.43 L 79.20 28.40  ZM 113.65 0.03 L 99.73 0.03 L 99.73 45.06 L 113.65 45.06 L 113.65 0.03  Z">
				</path>
			</g>
		</g>
		<g transform="translate(978.61,815.94) scale(1,1) rotate(0.00,108.37,94.07) " fill="rgb(0,0,0)" fill-opacity="1.0" stroke="none" stroke-width="1" stroke-linecap="round" stroke-opacity="1.0">
			<path fill-rule="evenodd" marker-start="none" marker-end="none" d="M 73.28 14.81 L 79.44 0.00 L 91.76 4.97 L 85.92 19.89 A 41.81 41.81 0.00 0 1 102.19 36.64 L 117.32 30.48 L 122.72 42.80 L 107.81 48.85 A 42.85 42.85 0.00 0 1 107.81 72.95 L 122.72 79.01 L 117.32 91.33 L 102.19 85.17 A 41.81 41.81 0.00 0 1 85.92 101.92 L 91.76 116.83 L 79.44 121.81 L 73.28 107.00 A 39.56 39.56 0.00 0 1 49.45 107.00 L 43.29 121.81 L 30.96 116.83 L 36.80 101.92 A 41.82 41.82 0.00 0 1 20.54 85.17 L 5.40 91.33 L 0.00 79.01 L 14.92 72.95 A 42.85 42.85 0.00 0 1 14.92 48.85 L 0.00 42.80 L 5.40 30.48 L 20.54 36.64 A 41.81 41.81 0.00 0 1 36.80 19.89 L 30.96 4.97 L 43.29 0.00 L 49.45 14.81 A 47.66 47.66 -0.00 0 1 73.28 14.81  ZM 26.79 60.90 A 34.57 34.57 0.00 1 1 95.93 60.90 A 34.57 34.57 0.00 1 1 26.79 60.90  ZM 174.64 97.02 L 179.88 84.41 L 190.37 88.65 L 185.40 101.35 A 35.60 35.60 0.00 0 1 199.25 115.61 L 212.14 110.37 L 216.74 120.86 L 204.04 126.01 A 36.49 36.49 -0.00 0 1 204.04 146.53 L 216.74 151.69 L 212.14 162.18 L 199.25 156.93 A 35.60 35.60 -0.00 0 1 185.40 171.20 L 190.37 183.90 L 179.88 188.13 L 174.64 175.52 A 33.68 33.68 0.00 0 1 154.34 175.52 L 149.10 188.13 L 138.61 183.90 L 143.58 171.20 A 35.60 35.60 0.00 0 1 129.73 156.93 L 116.84 162.18 L 112.24 151.69 L 124.94 146.53 A 36.49 36.49 -0.00 0 1 124.94 126.01 L 112.24 120.86 L 116.84 110.37 L 129.73 115.61 A 35.60 35.60 0.00 0 1 143.58 101.35 L 138.61 88.65 L 149.10 84.41 L 154.34 97.02 A 40.58 40.58 0.00 0 1 174.64 97.02  ZM 136.59 136.27 A 27.90 27.90 0.00 0 1 192.39 136.27 A 27.90 27.90 0.00 0 1 136.59 136.27  ZM 174.80 12.36 L 178.39 3.73 L 185.57 6.63 L 182.17 15.33 A 24.38 24.38 0.00 0 1 191.65 25.09 L 200.47 21.50 L 203.62 28.68 L 194.93 32.21 A 24.99 24.99 -0.00 0 1 194.93 46.26 L 203.62 49.79 L 200.47 56.98 L 191.65 53.38 A 24.38 24.38 -0.00 0 1 182.17 63.15 L 185.57 71.85 L 178.39 74.75 L 174.80 66.11 A 23.06 23.06 0.00 0 1 160.90 66.11 L 157.31 74.75 L 150.13 71.85 L 153.53 63.15 A 24.38 24.38 -0.00 0 1 144.05 53.38 L 135.22 56.98 L 132.07 49.79 L 140.77 46.26 A 24.98 24.98 0.00 0 1 140.77 32.21 L 132.07 28.68 L 135.22 21.50 L 144.05 25.09 A 24.38 24.38 -0.00 0 1 153.53 15.33 L 150.13 6.63 L 157.31 3.73 L 160.90 12.36 A 27.78 27.78 0.00 0 1 174.80 12.36  ZM 148.75 39.24 A 19.10 19.10 0.00 0 1 186.95 39.24 A 19.10 19.10 0.00 0 1 148.75 39.24  Z">
			</path>
		</g>
		<g transform="translate(1017.29,742.11) scale(1,1) rotate(0.00,75.00,37.50) " fill="none" fill-opacity="1.0" stroke="none" stroke-width="9" stroke-linecap="round" stroke-opacity="1.0">
			<g transform="translate(0.00,0.00) scale(1,1) rotate(0.00,75.00,37.50) ">
				<rect x="3" y="3" width="142" height="45" fill="rgb(255,255,255)" stroke="none" opacity="0.0">
				</rect>
				<text stroke-width="0">
					<tspan font-size="38" font-family="Helvetica" font-weight="100" stroke="rgb(37,37,37)" fill="rgb(37,37,37)" opacity="1.0" x="3.00 28.88 41.81 63.39 74.17 95.75 115.15 136.74 " y="35.40 35.40 35.40 35.40 35.40 35.40 35.40 35.40 ">
						Protocol</tspan>
				</text>
			</g>
			<g transform="translate(0.00,0.00) scale(1,1) rotate(0.00,75.00,37.50) ">
				<rect x="3" y="3" width="142" height="45" fill="rgb(255,255,255)" stroke="none" opacity="0.0">
				</rect>
				<text stroke-width="0">
					<tspan font-size="38" font-family="Helvetica" font-weight="100" stroke="rgb(37,37,37)" fill="rgb(37,37,37)" opacity="1.0" x="3.00 28.88 41.81 63.39 74.17 95.75 115.15 136.74 " y="35.40 35.40 35.40 35.40 35.40 35.40 35.40 35.40 ">
						Protocol</tspan>
				</text>
			</g>
		</g>
		<g transform="translate(669.85,674.71) scale(1,1) rotate(0.00,46.60,48.32) " fill="rgb(115,115,115)" fill-opacity="1.0" stroke="none" stroke-width="1" stroke-linecap="round" stroke-opacity="1.0">
			<path fill-rule="evenodd" marker-start="none" marker-end="none" d="M 12.78 96.64 A 12.78 12.78 -0.00 0 1 0.00 83.86 L 0.00 12.78 A 12.78 12.78 -0.00 0 1 12.78 -0.00 L 74.03 -0.00 L 93.20 19.00 L 93.20 83.86 A 12.78 12.78 0.00 0 1 80.42 96.64 L 12.78 96.64  ZM 12.78 88.94 A 5.08 5.08 0.00 0 1 7.70 83.86 L 7.70 12.78 A 5.08 5.08 -0.00 0 1 12.78 7.70 L 69.91 7.70 L 69.91 23.51 L 85.50 23.51 L 85.50 83.86 A 5.08 5.08 -0.00 0 1 80.42 88.94 L 12.78 88.94  ZM 39.29 68.32 L 39.29 73.92 A 10.13 10.13 0.00 0 1 27.42 64.00 L 27.42 56.45 A 5.40 5.40 0.00 0 0 22.76 50.85 L 22.76 45.53 A 5.40 5.40 0.00 0 0 27.42 39.93 L 27.42 32.38 A 10.13 10.13 -0.00 0 1 39.29 22.46 L 39.29 28.06 A 4.81 4.81 -0.00 0 0 34.73 33.04 L 34.73 40.59 A 8.24 8.24 -0.00 0 1 30.08 48.19 A 8.24 8.24 0.00 0 1 34.73 55.78 L 34.73 63.33 A 4.81 4.81 0.00 0 0 39.29 68.32  ZM 50.78 68.32 L 50.78 73.92 A 10.13 10.13 0.00 0 0 62.64 64.00 L 62.64 56.45 A 5.39 5.39 0.00 0 1 67.30 50.85 L 67.30 45.53 A 5.39 5.39 0.00 0 1 62.64 39.93 L 62.64 32.38 A 10.13 10.13 0.00 0 0 50.78 22.46 L 50.78 28.06 A 4.81 4.81 -0.00 0 1 55.33 33.04 L 55.33 40.59 A 8.24 8.24 0.00 0 0 59.99 48.19 A 8.24 8.24 0.00 0 0 55.33 55.78 L 55.33 63.33 A 4.81 4.81 -0.00 0 1 50.78 68.32  Z">
			</path>
		</g>
		<g transform="translate(262.23,106.91) scale(1,1) rotate(0.00,205.00,77.50) " fill="none" fill-opacity="1.0" stroke="none" stroke-width="9" stroke-linecap="round" stroke-opacity="1.0">
			<path fill-rule="evenodd" marker-start="none" marker-end="none" d="M 0.00 0.00 L 0.00 155.00 L 410.00 155.00 L 410.00 0.00 L 0.00 0.00  Z">
			</path>
			<g transform="translate(0.00,0.00) scale(1,1) rotate(0.00,550.01,163.98) ">
				<rect x="3" y="3" width="702" height="151" fill="rgb(255,255,1279)" stroke="none" opacity="0.0">
				</rect>
				<text stroke-width="0">
					<tspan font-size="127" font-family="Helvetica" font-weight="600" stroke="rgb(37,37,37)" fill="rgb(37,37,37)" opacity="1.0" x="3.00 80.58 158.15 228.78 306.36 376.99 458.17 549.88 627.46 " y="111.72 111.72 111.72 111.72 111.72 111.72 111.72 111.72 111.72 ">
						LoaderApp</tspan>
				</text>
			</g>
			<g transform="translate(0.00,0.00) scale(1,1) rotate(0.00,550.01,163.98) ">
				<rect x="3" y="3" width="702" height="151" fill="rgb(255,255,1279)" stroke="none" opacity="0.0">
				</rect>
				<text stroke-width="0">
					<tspan font-size="127" font-family="Helvetica" font-weight="600" stroke="rgb(37,37,37)" fill="rgb(37,37,37)" opacity="1.0" x="3.00 80.58 158.15 228.78 306.36 376.99 458.17 549.88 627.46 " y="111.72 111.72 111.72 111.72 111.72 111.72 111.72 111.72 111.72 ">
						LoaderApp</tspan>
				</text>
			</g>
		</g>
		<g transform="translate(432.59,261.91) scale(1,1) rotate(0.00,180.01,45.83) " fill="none" fill-opacity="1.0" stroke="none" stroke-width="9" stroke-linecap="round" stroke-opacity="1.0">
			<g transform="translate(0.00,0.00) scale(1,1) rotate(0.00,180.01,45.83) ">
				<rect x="3" y="3" width="351" height="84" fill="rgb(255,255,1279)" stroke="none" opacity="0.0">
				</rect>
				<text stroke-width="0">
					<tspan font-size="70" font-family="Helvetica" font-weight="100" stroke="rgb(37,37,37)" fill="rgb(37,37,37)" opacity="1.0" x="3.00 50.06 89.30 104.97 142.22 181.46 220.70 255.97 275.58 314.82 " y="63.48 63.48 63.48 63.48 63.48 63.48 63.48 63.48 63.48 63.48 ">
						Selfhosted</tspan>
				</text>
			</g>
			<g transform="translate(0.00,0.00) scale(1,1) rotate(0.00,180.01,45.83) ">
				<rect x="3" y="3" width="351" height="84" fill="rgb(255,255,1279)" stroke="none" opacity="0.0">
				</rect>
				<text stroke-width="0">
					<tspan font-size="70" font-family="Helvetica" font-weight="100" stroke="rgb(37,37,37)" fill="rgb(37,37,37)" opacity="1.0" x="3.00 50.06 89.30 104.97 142.22 181.46 220.70 255.97 275.58 314.82 " y="63.48 63.48 63.48 63.48 63.48 63.48 63.48 63.48 63.48 63.48 ">
						Selfhosted</tspan>
				</text>
			</g>
		</g>
		<g transform="translate(568.83,860.01) scale(1,1) rotate(0.00,150.00,50.00) " fill="rgb(225,225,225)" fill-opacity="1.0" stroke="rgb(122,122,122)" stroke-width="2" stroke-linecap="round" stroke-opacity="1.0">
			<path fill-rule="evenodd" marker-start="none" marker-end="none" d="M 0.00 20.00 L 250.00 20.00 L 250.00 0.00 L 300.00 50.00 L 250.00 100.00 L 250.00 80.00 L 0.00 80.00 ">
			</path>
		</g>
		<g transform="translate(568.83,1180.55) scale(1,1) rotate(180.00,150.00,50.00) " fill="rgb(225,225,225)" fill-opacity="1.0" stroke="rgb(122,122,122)" stroke-width="2" stroke-linecap="round" stroke-opacity="1.0">
			<path fill-rule="evenodd" marker-start="none" marker-end="none" d="M 0.00 20.00 L 250.00 20.00 L 250.00 0.00 L 300.00 50.00 L 250.00 100.00 L 250.00 80.00 L 0.00 80.00 ">
			</path>
		</g>
		<g transform="translate(1749.48,1466.95) scale(1,1) rotate(-180.00,154.02,0.00) " fill="rgb(225,225,225)" fill-opacity="1.0" stroke="rgb(122,122,122)" stroke-width="2" stroke-linecap="round" stroke-opacity="1.0">
			<path fill-rule="evenodd" marker-start="none" marker-end="none" d="M 0.00 0.00 L 97.63 93.66 L 85.46 41.54 L 346.67 72.23 L 308.04 0.00 L 346.67 -72.23 L 85.46 -41.54 L 97.63 -93.66 L 0.00 0.00  Z">
			</path>
		</g>
		<g transform="translate(1749.48,621.20) scale(1,1) rotate(-180.00,154.02,0.00) " fill="rgb(225,225,225)" fill-opacity="1.0" stroke="rgb(122,122,122)" stroke-width="2" stroke-linecap="round" stroke-opacity="1.0">
			<path fill-rule="evenodd" marker-start="none" marker-end="none" d="M 0.00 0.00 L 97.63 93.66 L 85.46 41.54 L 346.67 72.23 L 308.04 0.00 L 346.67 -72.23 L 85.46 -41.54 L 97.63 -93.66 L 0.00 0.00  Z">
			</path>
		</g>
		<g transform="translate(1195.35,282.75) scale(1,1) rotate(0.00,75.00,45.83) " fill="none" fill-opacity="1.0" stroke="none" stroke-width="9" stroke-linecap="round" stroke-opacity="1.0">
		</g>
		<g transform="translate(36.44,1288.43) scale(1,1) rotate(0.00,305.40,45.83) " fill="none" fill-opacity="1.0" stroke="none" stroke-width="9" stroke-linecap="round" stroke-opacity="1.0">
		</g>
		<g transform="translate(243.18,1288.43) scale(1,1) rotate(0.00,75.65,37.50) " fill="none" fill-opacity="1.0" stroke="none" stroke-width="9" stroke-linecap="round" stroke-opacity="1.0">
			<g transform="translate(0.00,0.00) scale(1,1) rotate(0.00,75.65,37.50) ">
				<rect x="3" y="3" width="100" height="67" fill="rgb(255,255,1279)" stroke="none" opacity="0.0">
				</rect>
				<text stroke-width="0">
					<tspan font-size="56" font-family="Helvetica" font-weight="100" stroke="rgb(37,37,37)" fill="rgb(37,37,37)" opacity="1.0" x="3.00 40.65 72.04 " y="51.24 51.24 51.24 ">
						You</tspan>
				</text>
			</g>
			<g transform="translate(0.00,0.00) scale(1,1) rotate(0.00,75.65,37.50) ">
				<rect x="3" y="3" width="100" height="67" fill="rgb(255,255,1279)" stroke="none" opacity="0.0">
				</rect>
				<text stroke-width="0">
					<tspan font-size="56" font-family="Helvetica" font-weight="100" stroke="rgb(37,37,37)" fill="rgb(37,37,37)" opacity="1.0" x="3.00 40.65 72.04 " y="51.24 51.24 51.24 ">
						You</tspan>
				</text>
			</g>
		</g>
		<g transform="translate(612.60,1304.11) scale(1,1) rotate(0.00,106.22,30.15) " fill="none" fill-opacity="1.0" stroke="none" stroke-width="9" stroke-linecap="round" stroke-opacity="1.0">
			<g transform="translate(0.00,0.00) scale(1,1) rotate(0.00,106.22,30.15) ">
				<rect x="3" y="3" width="191" height="49" fill="rgb(255,255,1279)" stroke="none" opacity="0.0">
				</rect>
				<text stroke-width="0">
					<tspan font-size="42" font-family="Helvetica" font-weight="100" stroke="rgb(37,37,37)" fill="rgb(37,37,37)" opacity="1.0" x="3.00 33.57 61.81 90.04 126.49 154.72 182.96 " y="38.28 38.28 38.28 38.28 38.28 38.28 38.28 ">
						RESTAPI</tspan>
				</text>
			</g>
			<g transform="translate(0.00,0.00) scale(1,1) rotate(0.00,106.22,30.15) ">
				<rect x="3" y="3" width="191" height="49" fill="rgb(255,255,1279)" stroke="none" opacity="0.0">
				</rect>
				<text stroke-width="0">
					<tspan font-size="42" font-family="Helvetica" font-weight="100" stroke="rgb(37,37,37)" fill="rgb(37,37,37)" opacity="1.0" x="3.00 33.57 61.81 90.04 126.49 154.72 182.96 " y="38.28 38.28 38.28 38.28 38.28 38.28 38.28 ">
						RESTAPI</tspan>
				</text>
			</g>
		</g>
		<g transform="translate(527.06,783.48) scale(1,1) rotate(0.00,189.38,30.15) " fill="none" fill-opacity="1.0" stroke="none" stroke-width="9" stroke-linecap="round" stroke-opacity="1.0">
			<g transform="translate(0.00,0.00) scale(1,1) rotate(0.00,189.38,30.15) ">
				<rect x="3" y="3" width="369" height="49" fill="rgb(255,255,1279)" stroke="none" opacity="0.0">
				</rect>
				<text stroke-width="0">
					<tspan font-size="42" font-family="Helvetica" font-weight="100" stroke="rgb(37,37,37)" fill="rgb(37,37,37)" opacity="1.0" x="3.00 31.24 52.40 75.95 99.49 134.75 158.30 190.05 228.87 264.13 287.68 311.22 334.76 358.31 " y="38.28 38.28 38.28 38.28 38.28 38.28 38.28 38.28 38.28 38.28 38.28 38.28 38.28 38.28 ">
						Schemas&amp;Mapper</tspan>
				</text>
			</g>
			<g transform="translate(0.00,0.00) scale(1,1) rotate(0.00,189.38,30.15) ">
				<rect x="3" y="3" width="369" height="49" fill="rgb(255,255,1279)" stroke="none" opacity="0.0">
				</rect>
				<text stroke-width="0">
					<tspan font-size="42" font-family="Helvetica" font-weight="100" stroke="rgb(37,37,37)" fill="rgb(37,37,37)" opacity="1.0" x="3.00 31.24 52.40 75.95 99.49 134.75 158.30 190.05 228.87 264.13 287.68 311.22 334.76 358.31 " y="38.28 38.28 38.28 38.28 38.28 38.28 38.28 38.28 38.28 38.28 38.28 38.28 38.28 38.28 ">
						Schemas&amp;Mapper</tspan>
				</text>
			</g>
		</g>
		<g transform="translate(2159.55,1703.00) scale(1,1) rotate(0.00,188.63,37.50) " fill="none" fill-opacity="1.0" stroke="none" stroke-width="9" stroke-linecap="round" stroke-opacity="1.0">
			<g transform="translate(0.00,0.00) scale(1,1) rotate(0.00,188.63,37.50) ">
				<rect x="3" y="3" width="368" height="67" fill="rgb(255,255,1279)" stroke="none" opacity="0.0">
				</rect>
				<text stroke-width="0">
					<tspan font-size="56" font-family="Helvetica" font-weight="100" stroke="rgb(37,37,37)" fill="rgb(37,37,37)" opacity="1.0" x="3.00 40.65 84.55 130.06 170.82 202.21 217.89 249.28 280.67 312.07 340.29 " y="51.24 51.24 51.24 51.24 51.24 51.24 51.24 51.24 51.24 51.24 51.24 ">
						SQLDatabase</tspan>
				</text>
			</g>
			<g transform="translate(0.00,0.00) scale(1,1) rotate(0.00,188.63,37.50) ">
				<rect x="3" y="3" width="368" height="67" fill="rgb(255,255,1279)" stroke="none" opacity="0.0">
				</rect>
				<text stroke-width="0">
					<tspan font-size="56" font-family="Helvetica" font-weight="100" stroke="rgb(37,37,37)" fill="rgb(37,37,37)" opacity="1.0" x="3.00 40.65 84.55 130.06 170.82 202.21 217.89 249.28 280.67 312.07 340.29 " y="51.24 51.24 51.24 51.24 51.24 51.24 51.24 51.24 51.24 51.24 51.24 ">
						SQLDatabase</tspan>
				</text>
			</g>
		</g>
		<g transform="translate(2095.26,872.51) scale(1,1) rotate(0.00,252.91,37.50) " fill="none" fill-opacity="1.0" stroke="none" stroke-width="9" stroke-linecap="round" stroke-opacity="1.0">
			<g transform="translate(0.00,0.00) scale(1,1) rotate(0.00,252.91,37.50) ">
				<rect x="3" y="3" width="497" height="67" fill="rgb(255,255,1279)" stroke="none" opacity="0.0">
				</rect>
				<text stroke-width="0">
					<tspan font-size="56" font-family="Helvetica" font-weight="100" stroke="rgb(37,37,37)" fill="rgb(37,37,37)" opacity="1.0" x="3.00 40.65 53.19 84.58 112.80 141.02 169.25 200.64 232.03 244.57 290.07 327.72 346.52 377.91 406.13 418.67 450.06 481.45 " y="51.24 51.24 51.24 51.24 51.24 51.24 51.24 51.24 51.24 51.24 51.24 51.24 51.24 51.24 51.24 51.24 51.24 51.24 ">
						BlockchainProvider</tspan>
				</text>
			</g>
			<g transform="translate(0.00,0.00) scale(1,1) rotate(0.00,252.91,37.50) ">
				<rect x="3" y="3" width="497" height="67" fill="rgb(255,255,1279)" stroke="none" opacity="0.0">
				</rect>
				<text stroke-width="0">
					<tspan font-size="56" font-family="Helvetica" font-weight="100" stroke="rgb(37,37,37)" fill="rgb(37,37,37)" opacity="1.0" x="3.00 40.65 53.19 84.58 112.80 141.02 169.25 200.64 232.03 244.57 290.07 327.72 346.52 377.91 406.13 418.67 450.06 481.45 " y="51.24 51.24 51.24 51.24 51.24 51.24 51.24 51.24 51.24 51.24 51.24 51.24 51.24 51.24 51.24 51.24 51.24 51.24 ">
						BlockchainProvider</tspan>
				</text>
			</g>
		</g>
		<g transform="translate(1370.93,841.59) scale(1,1) rotate(0.00,157.14,37.50) " fill="none" fill-opacity="1.0" stroke="none" stroke-width="9" stroke-linecap="round" stroke-opacity="1.0">
			<g transform="translate(0.00,0.00) scale(1,1) rotate(0.00,157.14,37.50) ">
				<rect x="3" y="3" width="282" height="67" fill="rgb(255,255,1279)" stroke="none" opacity="0.0">
				</rect>
				<text stroke-width="0">
					<tspan font-size="56" font-family="Helvetica" font-weight="600" stroke="rgb(37,37,37)" fill="rgb(37,37,37)" opacity="1.0" x="3.00 40.65 72.04 103.43 134.82 169.30 200.69 232.09 263.48 " y="51.24 51.24 51.24 51.24 51.24 51.24 51.24 51.24 51.24 ">
						EasyLayer</tspan>
				</text>
			</g>
			<g transform="translate(0.00,0.00) scale(1,1) rotate(0.00,157.14,37.50) ">
				<rect x="3" y="3" width="282" height="67" fill="rgb(255,255,1279)" stroke="none" opacity="0.0">
				</rect>
				<text stroke-width="0">
					<tspan font-size="56" font-family="Helvetica" font-weight="600" stroke="rgb(37,37,37)" fill="rgb(37,37,37)" opacity="1.0" x="3.00 40.65 72.04 103.43 134.82 169.30 200.69 232.09 263.48 " y="51.24 51.24 51.24 51.24 51.24 51.24 51.24 51.24 51.24 ">
						EasyLayer</tspan>
				</text>
			</g>
		</g>
		<g transform="translate(1310.52,947.51) scale(1,1) rotate(0.00,217.54,37.50) " fill="none" fill-opacity="1.0" stroke="none" stroke-width="9" stroke-linecap="round" stroke-opacity="1.0">
			<g transform="translate(0.00,0.00) scale(1,1) rotate(0.00,217.54,37.50) ">
				<rect x="3" y="3" width="401" height="45" fill="rgb(255,255,1279)" stroke="none" opacity="0.0">
				</rect>
				<text stroke-width="0">
					<tspan font-size="38" font-family="Helvetica" font-weight="100" stroke="rgb(37,37,37)" fill="rgb(37,37,37)" opacity="1.0" x="3.00 33.18 54.77 75.25 96.83 117.31 128.09 149.68 180.96 206.84 228.42 257.53 279.11 300.69 320.10 339.50 361.08 382.66 " y="35.40 35.40 35.40 35.40 35.40 35.40 35.40 35.40 35.40 35.40 35.40 35.40 35.40 35.40 35.40 35.40 35.40 35.40 ">
						OutoftheBoxpackage</tspan>
				</text>
			</g>
			<g transform="translate(0.00,0.00) scale(1,1) rotate(0.00,217.54,37.50) ">
				<rect x="3" y="3" width="401" height="45" fill="rgb(255,255,1279)" stroke="none" opacity="0.0">
				</rect>
				<text stroke-width="0">
					<tspan font-size="38" font-family="Helvetica" font-weight="100" stroke="rgb(37,37,37)" fill="rgb(37,37,37)" opacity="1.0" x="3.00 33.18 54.77 75.25 96.83 117.31 128.09 149.68 180.96 206.84 228.42 257.53 279.11 300.69 320.10 339.50 361.08 382.66 " y="35.40 35.40 35.40 35.40 35.40 35.40 35.40 35.40 35.40 35.40 35.40 35.40 35.40 35.40 35.40 35.40 35.40 35.40 ">
						OutoftheBoxpackage</tspan>
				</text>
			</g>
		</g>
	</svg>
</svg>
