<svg width="130" height="130" xmlns="http://www.w3.org/2000/svg" shape-rendering="geometricPrecision" text-rendering="geometricPrecision" image-rendering="optimizeQuality" fill-rule="evenodd" clip-rule="evenodd" viewBox="0 0 469 511.61"><path d="M349.12 255.89h66.78v-7.5c-3.81-14.14-9.89-23.72-17.77-29.56-7.86-5.82-18.08-8.32-30.06-8.23l-280.54.06c-6.74 0-12.21-5.46-12.21-12.2 0-6.74 5.47-12.21 12.21-12.21l35.83.01c-4.88-7.32-8.97-15.21-12.16-23.53-1.88-4.93-3.46-10-4.69-15.21H66.03c-11.43 0-21.84 4.69-29.39 12.24-7.54 7.54-12.23 17.95-12.23 29.38v256.44c0 11.41 4.7 21.82 12.25 29.36 7.52 7.58 17.93 12.26 29.37 12.26h308.25c11.41 0 21.82-4.7 29.38-12.24 7.54-7.56 12.24-17.97 12.24-29.38v-36.59h-66.78c-20.63 0-39.38-8.44-52.94-22l-1.28-1.39c-12.81-13.49-20.72-31.67-20.72-51.55v-3.22c0-20.53 8.43-39.25 22-52.86l.13-.13c13.6-13.54 32.3-21.95 52.81-21.95zM190.91 137.43V82.95c.33-4.17-2.41-5.52-6.81-5.37h-10.57V62.9h22.72V50.67h12.86V62.9h10.07V50.67h12.85v12.44c2.83.09 5.67.22 8.26.37 11.69.68 19.82 2.59 25.02 14 1.43 3.14 2.21 6.55 2.21 9.91 0 4.39-1.06 6.97-3.19 10.52-2.13 3.53-5.26 6.04-9.37 7.86 30.61 3.8 24.99 47.39-7.07 50.77-2.71.28-9.35.62-15.86.85v12.43h-12.85v-12.19h-10.07v12.19h-12.86v-12.19h-22.72l3.16-14.2h10.15c3.25.47 4.36-1.85 4.07-6zm41.12-57.35v21.38c15.28-3.71 14.28-17.42 0-21.38zm0 34.51v26.46c1.62-.15 3.02-.34 4.19-.56 15.5-2.9 19.09-21.03.55-25.13-1.35-.31-2.94-.57-4.74-.77zm-12.85 26.94V114.1h-5.28v27.43h5.28zm0-39.15V79h-5.28v23.38h5.28zm-70.2 83.88 148.39.02c15.77-17.62 25.37-40.88 25.37-66.39 0-55-44.57-99.56-99.55-99.56-54.99 0-99.56 44.56-99.56 99.56 0 25.51 9.58 48.76 25.35 66.37zm174 .02 44.76.01c17.22-.16 32.41 3.76 44.88 13 1.12.83 2.21 1.7 3.28 2.61v-12.76c0-11.39-4.7-21.81-12.26-29.37-7.51-7.56-17.9-12.25-29.36-12.25h-34.42c-1.23 5.2-2.81 10.28-4.69 15.2-3.2 8.33-7.3 16.23-12.19 23.56zm20.05-63.17h31.25c18.11 0 34.62 7.45 46.6 19.43 11.99 11.94 19.43 28.47 19.43 46.6v67.43c7.04 1.41 13.35 4.9 18.23 9.78 6.44 6.44 10.46 15.37 10.46 25.2v80.26c0 10.16-4.18 19.46-10.96 26.23a36.887 36.887 0 0 1-17.73 9.97v37.57c0 18.09-7.45 34.59-19.41 46.56l-.06.05c-11.96 11.96-28.47 19.42-46.56 19.42H66.03c-18.09 0-34.61-7.45-46.61-19.43C7.44 480.25 0 463.74 0 445.58V189.14c0-18.17 7.43-34.69 19.39-46.64 11.95-11.96 28.46-19.39 46.64-19.39h37.31l-.05-3.22c0-33.1 13.43-63.09 35.12-84.78l1.25-1.15C161.26 12.95 190.73 0 223.19 0c33.1 0 63.08 13.42 84.77 35.11l1.15 1.25c21.02 21.6 33.96 51.07 33.96 83.53l-.04 3.22zm12.27 178.73c8.04 0 15.34 3.27 20.64 8.56 5.32 5.33 8.59 12.63 8.59 20.67 0 8.04-3.27 15.35-8.56 20.64-5.33 5.32-12.63 8.59-20.67 8.59-8.03 0-15.33-3.28-20.63-8.56l-.05-.06c-5.29-5.3-8.55-12.59-8.55-20.61 0-8.03 3.28-15.33 8.57-20.63l.05-.05c5.29-5.28 12.58-8.55 20.61-8.55z"/></svg>